<svg xmlns="http://www.w3.org/2000/svg" width="233.834" height="39.245" viewBox="0 0 233.834 39.245">
  <path id="合体_3" data-name="合体 3" d="M6430.168,226.122c0-11.576,9.515-19.122,20.005-19.122s20,7.546,20,19.122-9.513,19.123-20,19.123S6430.168,237.7,6430.168,226.122Zm12.438.114c0,4.538,3.325,8.284,7.567,8.284s7.565-3.745,7.565-8.284-3.325-8.4-7.565-8.4S6442.606,221.694,6442.606,226.236Zm-102.427,4.827V208.034h12.21v22.291a4.42,4.42,0,0,0,4.7,4.48c2.062,0,4.7-1.246,4.7-4.424V208.034h11.981v23.029c0,8.961-7.854,14.065-16.8,14.065S6340.18,240.024,6340.18,231.063Zm-87.179,0V208.034h12.208v22.291a4.421,4.421,0,0,0,4.7,4.48c2.063,0,4.7-1.246,4.7-4.424V208.034h11.981v23.029c0,8.961-7.854,14.065-16.795,14.065S6253,240.024,6253,231.063Zm136.588,13.145V208.034h16.335c7.4,0,12.611,5.048,12.611,11.793s-5.216,11.793-12.611,11.793h-4.7v12.587Zm11.634-21.489h3.1a2.615,2.615,0,1,0,0-5.217h-3.1Zm-98.814,21.489V208.034h12.209v26.478h11.463v9.7Zm179.126-28.49-1.652-3.21c-.243-.466-.542-1.1-.782-1.616h-.024c-.022.542-.076,1.163-.11,1.583l-.275,3.186h-.948l.606-7.058h.658l1.876,3.63c.275.542.65,1.271.881,1.815h.022c.219-.544.561-1.23.858-1.815l1.851-3.63h.661l.63,7.058h-1.014l-.287-3.186c-.045-.475-.088-1.084-.109-1.6h-.022c-.221.5-.563,1.184-.794,1.638l-1.63,3.21Zm-7.672-.058v-6.14h-2.258V208.6h5.586v.918h-2.259v6.14Z" transform="translate(-6252.5 -206.5)" fill="#36a8a2" stroke="rgba(0,0,0,0)" stroke-miterlimit="10" stroke-width="1"/>
</svg>
