<svg id="グループ_1" data-name="グループ 1" xmlns="http://www.w3.org/2000/svg" width="261.776" height="43.443" viewBox="0 0 261.776 43.443">
  <path id="パス_1" data-name="パス 1" d="M-137.068,171.88c-10.054,0-18.885-5.8-18.885-15.984v-26.17h13.729v25.332c0,3.676,2.965,5.092,5.286,5.092s5.284-1.416,5.284-5.028v-25.4h13.473V155.9C-118.18,166.08-127.012,171.88-137.068,171.88Z" transform="translate(155.953 -128.568)" fill="#36a8a2"/>
  <path id="パス_2" data-name="パス 2" d="M-130.769,170.85V129.726h13.729v30.1h12.891V170.85Z" transform="translate(186.331 -128.568)" fill="#36a8a2"/>
  <path id="パス_3" data-name="パス 3" d="M-92.632,171.88c-10.056,0-18.885-5.8-18.885-15.984v-26.17h13.729v25.332c0,3.676,2.965,5.092,5.286,5.092s5.284-1.416,5.284-5.028v-25.4h13.473V155.9C-73.744,166.08-82.576,171.88-92.632,171.88Z" transform="translate(209.553 -128.568)" fill="#36a8a2"/>
  <path id="パス_4" data-name="パス 4" d="M-67.964,156.54H-73.25v14.31H-86.333V129.726h18.369c8.315,0,14.182,5.738,14.182,13.407S-59.649,156.54-67.964,156.54Zm-1.8-16.05H-73.25v5.93h3.481a2.99,2.99,0,0,0,3.159-2.963A2.992,2.992,0,0,0-69.769,140.49Z" transform="translate(239.931 -128.568)" fill="#36a8a2"/>
  <path id="パス_5" data-name="パス 5" d="M-43.153,172.644c-11.8,0-22.5-8.573-22.5-21.723s10.7-21.72,22.5-21.72,22.493,8.571,22.493,21.72S-31.359,172.644-43.153,172.644Zm0-31.132c-4.77,0-8.509,4.382-8.509,9.54s3.74,9.41,8.509,9.41,8.507-4.254,8.507-9.41S-38.385,141.512-43.153,141.512Z" transform="translate(264.879 -129.201)" fill="#36a8a2"/>
  <path id="パス_6" data-name="パス 6" d="M-40.787,131.042v6.875h-1.2v-6.875h-2.539v-1.028h6.281v1.028Z" transform="translate(290.356 -128.22)" fill="#36a8a2"/>
  <path id="パス_7" data-name="パス 7" d="M-33.5,137.917l-.322-3.567c-.051-.532-.1-1.213-.124-1.8h-.024c-.249.556-.633,1.326-.894,1.833l-1.833,3.594h-.446L-39,134.387c-.274-.521-.609-1.227-.88-1.809H-39.9c-.024.607-.086,1.3-.124,1.772l-.309,3.567H-41.4l.682-7.9h.741l2.109,4.064c.309.607.73,1.423.991,2.032h.024c.247-.609.631-1.377.966-2.032l2.08-4.064h.743l.708,7.9Z" transform="translate(294.13 -128.22)" fill="#36a8a2"/>
</svg>
