<svg xmlns="http://www.w3.org/2000/svg" width="57.156" height="57.156" viewBox="0 0 57.156 57.156">
  <path id="パス_201" data-name="パス 201" d="M140.466,252.846a28.578,28.578,0,1,0,28.578,28.578,28.578,28.578,0,0,0-28.578-28.578Zm18,31.75a16.488,16.488,0,0,1-3.067,4.6c-3.987,4.591-12.908,10.183-14.937,11.036s-1.729-.543-1.648-1.024c.052-.286.271-1.629.271-1.629a3.808,3.808,0,0,0-.062-1.715c-.21-.533-1.053-.8-1.672-.938-9.135-1.21-15.9-7.6-15.9-15.218,0-8.507,8.531-15.427,19.009-15.427s19.015,6.925,19.015,15.425a12.184,12.184,0,0,1-1.005,4.89Zm-21.429-8.566v8.147a.366.366,0,0,1-.365.365H135.36a.361.361,0,0,1-.361-.363V276.03a.358.358,0,0,1,.355-.361h1.318a.362.362,0,0,1,.365.359Zm9.027,0v8.147a.366.366,0,0,1-.365.365h-1.312a.33.33,0,0,1-.094-.014h0l-.023-.009h-.028c-.005,0-.014-.009-.019-.009h-.009l-.023-.014h0a.379.379,0,0,1-.094-.089l-3.734-5.05V284.2a.366.366,0,0,1-.365.365h-1.322a.366.366,0,0,1-.365-.365v-8.147a.362.362,0,0,1,.363-.361h1.365a.017.017,0,0,0,.014,0,.031.031,0,0,1,.019,0,.017.017,0,0,1,.014,0h.032l.023.009h.009c.009,0,.014.009.019.009s.009,0,.014.009a.052.052,0,0,0,.019.014h.009a.063.063,0,0,1,.019.019h0c.009,0,.014.014.023.023a.1.1,0,0,1,.028.038l3.734,5.041v-4.839a.362.362,0,0,1,.363-.361h1.314a.362.362,0,0,1,.372.352Zm-12.19,6.835v1.312a.366.366,0,0,1-.365.365h-5.238a.372.372,0,0,1-.253-.1h0a.372.372,0,0,1-.1-.253v-8.147a.362.362,0,0,1,.363-.361H129.6a.362.362,0,0,1,.365.359v6.472h3.56A.367.367,0,0,1,133.874,282.865Zm15.5-5.158v1.377h3.565a.367.367,0,0,1,.365.365v1.31a.362.362,0,0,1-.363.361h-3.567V282.5h3.565a.367.367,0,0,1,.365.365v1.312a.366.366,0,0,1-.365.365H147.7a.372.372,0,0,1-.253-.1h0a.353.353,0,0,1-.1-.253v-8.147a.34.34,0,0,1,.1-.248v-.009h0a.37.37,0,0,1,.253-.1h5.237a.362.362,0,0,1,.365.359v1.314a.366.366,0,0,1-.365.365Z" transform="translate(-111.888 -252.846)" fill="#36a8a2"/>
</svg>
