<svg id="グループ_212" data-name="グループ 212" xmlns="http://www.w3.org/2000/svg" width="57.173" height="57.173" viewBox="0 0 57.173 57.173">
  <path id="パス_175" data-name="パス 175" d="M944.791,160H931.4a6.908,6.908,0,0,0-6.9,6.914v13.376a6.908,6.908,0,0,0,6.9,6.914h13.393a6.908,6.908,0,0,0,6.9-6.914V166.914A6.908,6.908,0,0,0,944.791,160Zm-6.559,21.858a8.255,8.255,0,1,1,8.255-8.255A8.26,8.26,0,0,1,938.232,181.858Zm8.74-15.105a1.963,1.963,0,1,1,1.955-1.955A1.965,1.965,0,0,1,946.972,166.753Zm-8.74,1.567a5.283,5.283,0,1,0,5.283,5.283A5.3,5.3,0,0,0,938.232,168.32Z" transform="translate(-909.508 -145.057)" fill="#36a8a2"/>
  <path id="パス_176" data-name="パス 176" d="M943.814,150.75a28.586,28.586,0,1,0,28.578,28.594A28.6,28.6,0,0,0,943.814,150.75Zm16.753,35.234A10.076,10.076,0,0,1,950.5,196.049H937.11a10.077,10.077,0,0,1-10.065-10.065V172.608a10.077,10.077,0,0,1,10.065-10.065H950.5a10.076,10.076,0,0,1,10.065,10.065Z" transform="translate(-915.22 -150.75)" fill="#36a8a2"/>
</svg>
