<svg xmlns="http://www.w3.org/2000/svg" width="289.253" height="247.451" viewBox="0 0 289.253 247.451">
  <g id="グループ_328" data-name="グループ 328" transform="translate(-746.712 -3089)">
    <g id="グループ_326" data-name="グループ 326" transform="translate(0 -59.009)">
      <path id="パス_158" data-name="パス 158" d="M480.834,285.214V460.98a12.2,12.2,0,0,1-12.2,12.2H362.61a12.2,12.2,0,0,1-12.2-12.2V309.266l-19.393-22.732a2.033,2.033,0,0,1,1.547-3.353H478.8A2.033,2.033,0,0,1,480.834,285.214Z" transform="translate(416.667 2921.828)" fill="#fff" stroke="#36a8a2" stroke-linejoin="round" stroke-width="0.9"/>
      <path id="パス_159" data-name="パス 159" d="M350.064,424.822a4.072,4.072,0,0,0,4.066,4.068H460.155a4.073,4.073,0,0,0,4.068-4.068V366.335h-114.2Z" transform="translate(425.146 2957.987)" fill="#0096de"/>
      <path id="パス_160" data-name="パス 160" d="M464.241,300.964H349.98l.032,46.934h114.23Z" transform="translate(425.127 2929.696)" fill="#dd3a7c"/>
      <path id="パス_161" data-name="パス 161" d="M350,333.674l.032,46.862h114.2V333.674Z" transform="translate(425.136 2943.637)" fill="#a6a7a7"/>
      <line id="線_25" data-name="線 25" y1="127.874" transform="translate(867.718 3244.763)" fill="none" stroke="#fff" stroke-linejoin="round" stroke-width="0.9"/>
      <line id="線_26" data-name="線 26" x2="14.632" transform="translate(867.718 3244.763)" fill="none" stroke="#fff" stroke-linecap="round" stroke-linejoin="round" stroke-width="0.9"/>
      <line id="線_27" data-name="線 27" x2="14.632" transform="translate(867.718 3372.637)" fill="none" stroke="#fff" stroke-linecap="round" stroke-linejoin="round" stroke-width="0.9"/>
      <line id="線_28" data-name="線 28" x2="14.632" transform="translate(867.718 3347.063)" fill="none" stroke="#fff" stroke-linecap="round" stroke-linejoin="round" stroke-width="0.9"/>
      <line id="線_29" data-name="線 29" x2="14.632" transform="translate(867.718 3321.488)" fill="none" stroke="#fff" stroke-linecap="round" stroke-linejoin="round" stroke-width="0.9"/>
      <line id="線_30" data-name="線 30" x2="14.632" transform="translate(867.718 3295.913)" fill="none" stroke="#fff" stroke-linecap="round" stroke-linejoin="round" stroke-width="0.9"/>
      <line id="線_31" data-name="線 31" x2="14.632" transform="translate(867.718 3270.338)" fill="none" stroke="#fff" stroke-linecap="round" stroke-linejoin="round" stroke-width="0.9"/>
      <path id="パス_162" data-name="パス 162" d="M367.074,326.725a4.5,4.5,0,0,0,1.821,2.835,6.571,6.571,0,0,0,3.85,1.075c3.462,0,5.64-1.791,5.64-4.626,0-2.953-2.119-4.564-6.088-4.564a21.07,21.07,0,0,0-2.388.148v-2.356a12.769,12.769,0,0,0,2.208.179,5.971,5.971,0,0,0,4.358-1.373,4.11,4.11,0,0,0,1.192-2.9c0-2.565-1.789-4.058-4.8-4.058a4.692,4.692,0,0,0-3.97,1.58,5.647,5.647,0,0,0-.954,2.121l-2.478-.538a6.808,6.808,0,0,1,1.611-2.983,7.749,7.749,0,0,1,5.939-2.18c4.327,0,7.072,2.267,7.072,5.85A5.242,5.242,0,0,1,378,319.295a6.152,6.152,0,0,1-2.805,1.075,6.394,6.394,0,0,1,3.669,1.283,5.469,5.469,0,0,1,2,4.507c0,4.028-3.1,6.536-8.087,6.536-3.013,0-5.251-.836-6.685-2.449a7.736,7.736,0,0,1-1.522-2.893Z" transform="translate(431.47 2933.094)" fill="#fff"/>
      <path id="パス_163" data-name="パス 163" d="M381.2,330.558a7.421,7.421,0,0,1-1.791-2.746,20.618,20.618,0,0,1-1.135-6.893A17.44,17.44,0,0,1,380,312.8a7.99,7.99,0,0,1,12.144-1.551A7.486,7.486,0,0,1,393.939,314a20.541,20.541,0,0,1,1.133,6.923c0,3.612-.775,6.8-2.088,8.623a7.3,7.3,0,0,1-6.326,3.135A7.442,7.442,0,0,1,381.2,330.558Zm1.732-17.846a6.1,6.1,0,0,0-1.344,2.179,18.539,18.539,0,0,0-.924,6.028,16.5,16.5,0,0,0,1.4,7.1,5.083,5.083,0,0,0,4.626,2.6,4.964,4.964,0,0,0,3.669-1.4,5.853,5.853,0,0,0,1.4-2.327,18.5,18.5,0,0,0,.925-6.028,16.9,16.9,0,0,0-1.343-6.953,5.043,5.043,0,0,0-4.685-2.715A4.854,4.854,0,0,0,382.93,312.711Z" transform="translate(437.429 2933.112)" fill="#fff"/>
      <path id="パス_164" data-name="パス 164" d="M392.773,321.893a4.976,4.976,0,0,1-1.184-3.617c0-2.884,1.378-4.583,3.744-4.583,2.347,0,3.725,1.679,3.725,4.583a4.976,4.976,0,0,1-1.184,3.617,3.847,3.847,0,0,1-5.1,0Zm.258-3.617c0,2.109.839,3.316,2.3,3.316,1.442,0,2.281-1.207,2.281-3.316,0-2.129-.816-3.313-2.281-3.313C393.849,314.963,393.031,316.167,393.031,318.276Zm13.17-4.712.9.687-13.043,16.508-.9-.732Zm-3.809,16.1a4.946,4.946,0,0,1-1.184-3.594c0-2.906,1.377-4.584,3.745-4.584s3.723,1.679,3.723,4.584a4.914,4.914,0,0,1-1.184,3.594,3.579,3.579,0,0,1-2.54.969A3.51,3.51,0,0,1,402.392,329.661Zm.26-3.594c0,2.088.839,3.293,2.3,3.293,1.442,0,2.281-1.205,2.281-3.293,0-2.131-.818-3.314-2.281-3.314C403.468,322.753,402.652,323.936,402.652,326.067Z" transform="translate(443.22 2935.04)" fill="#fff"/>
      <path id="パス_165" data-name="パス 165" d="M367.085,359.411a4.5,4.5,0,0,0,1.821,2.835,6.569,6.569,0,0,0,3.848,1.075c3.462,0,5.642-1.791,5.642-4.626,0-2.953-2.121-4.564-6.088-4.564a21.056,21.056,0,0,0-2.388.148v-2.356a12.741,12.741,0,0,0,2.208.179,5.973,5.973,0,0,0,4.358-1.373,4.116,4.116,0,0,0,1.192-2.9c0-2.565-1.789-4.058-4.8-4.058a4.687,4.687,0,0,0-3.969,1.581,5.651,5.651,0,0,0-.954,2.119l-2.478-.538a6.816,6.816,0,0,1,1.611-2.983,7.747,7.747,0,0,1,5.939-2.18c4.326,0,7.072,2.267,7.072,5.85a5.242,5.242,0,0,1-2.088,4.356,6.164,6.164,0,0,1-2.807,1.075,6.4,6.4,0,0,1,3.67,1.283,5.469,5.469,0,0,1,2,4.507c0,4.028-3.1,6.536-8.087,6.536-3.015,0-5.251-.836-6.685-2.448a7.754,7.754,0,0,1-1.522-2.894Z" transform="translate(431.475 2947.307)" fill="#fff"/>
      <path id="パス_166" data-name="パス 166" d="M381.207,363.244a7.439,7.439,0,0,1-1.791-2.746,20.652,20.652,0,0,1-1.134-6.893,17.458,17.458,0,0,1,1.73-8.117,7.992,7.992,0,0,1,12.146-1.551,7.5,7.5,0,0,1,1.791,2.745,20.542,20.542,0,0,1,1.134,6.923c0,3.611-.775,6.8-2.088,8.623a7.3,7.3,0,0,1-6.326,3.135A7.448,7.448,0,0,1,381.207,363.244Zm1.732-17.845a6.1,6.1,0,0,0-1.343,2.178,18.5,18.5,0,0,0-.925,6.028,16.472,16.472,0,0,0,1.4,7.1,5.079,5.079,0,0,0,4.625,2.6,4.967,4.967,0,0,0,3.67-1.4,5.853,5.853,0,0,0,1.4-2.327,18.5,18.5,0,0,0,.925-6.028,16.894,16.894,0,0,0-1.343-6.952,5.042,5.042,0,0,0-4.685-2.716A4.853,4.853,0,0,0,382.939,345.4Z" transform="translate(437.434 2947.325)" fill="#fff"/>
      <path id="パス_167" data-name="パス 167" d="M392.784,354.579a4.974,4.974,0,0,1-1.184-3.617c0-2.884,1.377-4.583,3.744-4.583,2.347,0,3.725,1.679,3.725,4.583a4.968,4.968,0,0,1-1.185,3.617,3.845,3.845,0,0,1-5.1,0Zm.257-3.617c0,2.109.839,3.316,2.3,3.316,1.442,0,2.281-1.207,2.281-3.316,0-2.129-.818-3.313-2.281-3.313C393.86,347.649,393.041,348.853,393.041,350.962Zm13.172-4.712.9.687-13.043,16.508-.9-.732Zm-3.809,16.1a4.946,4.946,0,0,1-1.184-3.594c0-2.906,1.377-4.583,3.745-4.583s3.723,1.677,3.723,4.583a4.914,4.914,0,0,1-1.184,3.594,3.582,3.582,0,0,1-2.54.97A3.508,3.508,0,0,1,402.4,362.347Zm.26-3.594c0,2.088.839,3.293,2.3,3.293,1.442,0,2.281-1.205,2.281-3.293,0-2.131-.818-3.314-2.281-3.314C403.479,355.439,402.663,356.622,402.663,358.753Z" transform="translate(443.225 2949.253)" fill="#fff"/>
      <path id="パス_168" data-name="パス 168" d="M364.4,394.988c.627-.717,1.313-1.552,1.94-2.3l7.55-9.43a33.883,33.883,0,0,0,2.238-3.043h2.238a49.033,49.033,0,0,0-.179,5.042v9.788h1.134a19.85,19.85,0,0,0,3.1-.21v2.478a20.261,20.261,0,0,0-3.134-.209h-1.1v2.565a17.206,17.206,0,0,0,.238,3.223h-2.716a17.262,17.262,0,0,0,.24-3.223v-2.565h-8c-1.67,0-2.566.03-3.551.119Zm11.579-7.491a35.932,35.932,0,0,1,.179-4.058c-.627.9-1.373,1.878-2.238,2.983l-6.864,8.654h8.923Z" transform="translate(431.398 2964.022)" fill="#fff"/>
      <path id="パス_169" data-name="パス 169" d="M381.407,401.35a7.415,7.415,0,0,1-1.792-2.746,20.647,20.647,0,0,1-1.134-6.892,17.447,17.447,0,0,1,1.732-8.118,7.993,7.993,0,0,1,12.144-1.551,7.5,7.5,0,0,1,1.791,2.745,20.542,20.542,0,0,1,1.133,6.924c0,3.61-.775,6.8-2.088,8.622a7.3,7.3,0,0,1-6.326,3.135A7.443,7.443,0,0,1,381.407,401.35Zm1.732-17.845a6.08,6.08,0,0,0-1.344,2.178,18.542,18.542,0,0,0-.924,6.029,16.5,16.5,0,0,0,1.4,7.1,5.082,5.082,0,0,0,4.626,2.6,4.969,4.969,0,0,0,3.669-1.4,5.873,5.873,0,0,0,1.4-2.327,18.5,18.5,0,0,0,.925-6.028,16.9,16.9,0,0,0-1.343-6.953,5.044,5.044,0,0,0-4.685-2.716A4.855,4.855,0,0,0,383.138,383.505Z" transform="translate(437.52 2963.896)" fill="#fff"/>
      <path id="パス_170" data-name="パス 170" d="M392.982,392.686a4.97,4.97,0,0,1-1.184-3.616c0-2.884,1.377-4.584,3.744-4.584,2.347,0,3.725,1.679,3.725,4.584a4.97,4.97,0,0,1-1.184,3.616,3.842,3.842,0,0,1-5.1,0Zm.258-3.616c0,2.108.839,3.314,2.3,3.314,1.442,0,2.281-1.207,2.281-3.314,0-2.131-.816-3.314-2.281-3.314C394.058,385.756,393.24,386.961,393.24,389.07Zm13.17-4.713.9.689-13.043,16.508-.9-.733Zm-3.809,16.1a4.944,4.944,0,0,1-1.184-3.594c0-2.9,1.377-4.583,3.745-4.583s3.723,1.679,3.723,4.583a4.909,4.909,0,0,1-1.184,3.594,3.574,3.574,0,0,1-2.54.97A3.511,3.511,0,0,1,402.6,400.454Zm.26-3.594c0,2.088.839,3.293,2.3,3.293,1.442,0,2.281-1.205,2.281-3.293,0-2.129-.818-3.313-2.281-3.313C403.677,393.547,402.861,394.731,402.861,396.86Z" transform="translate(443.311 2965.823)" fill="#fff"/>
      <path id="パス_179" data-name="パス 179" d="M249.125,367.974l-14.261-14.261,14.261-14.261" transform="translate(676.315 2901.538)" fill="none" stroke="#1a1311" stroke-linecap="round" stroke-miterlimit="10" stroke-width="0.9"/>
      <path id="パス_212" data-name="パス 212" d="M2.3-15.215a7.231,7.231,0,0,1,1.041-.072h.646V-8.36a7.546,7.546,0,0,1-.1,1.352H5.023a7.632,7.632,0,0,1-.1-1.352v-5.813a19.626,19.626,0,0,1,.108-1.986,6.811,6.811,0,0,1-.993.06H3.288a5.793,5.793,0,0,1-.993-.06Zm9.857,8.385a2.924,2.924,0,0,0,2.536-1.256,6.238,6.238,0,0,0,.837-3.457,8.234,8.234,0,0,0-.455-2.775,3.015,3.015,0,0,0-.718-1.1,2.947,2.947,0,0,0-2.189-.849A2.939,2.939,0,0,0,9.485-14.8a6.993,6.993,0,0,0-.694,3.254,8.265,8.265,0,0,0,.455,2.763,2.971,2.971,0,0,0,.718,1.1A2.985,2.985,0,0,0,12.152-6.829Zm0-8.613a2.021,2.021,0,0,1,1.878,1.089,6.777,6.777,0,0,1,.538,2.787A7.419,7.419,0,0,1,14.2-9.15a2.355,2.355,0,0,1-.562.933,1.993,1.993,0,0,1-1.471.562A2.038,2.038,0,0,1,10.31-8.7a6.61,6.61,0,0,1-.562-2.847,7.419,7.419,0,0,1,.371-2.416,2.443,2.443,0,0,1,.538-.873A1.948,1.948,0,0,1,12.152-15.442Zm6.519,4.27a1.991,1.991,0,0,0,1.412-.538,2.762,2.762,0,0,0,.658-2.01c0-1.615-.766-2.548-2.069-2.548s-2.081.945-2.081,2.548a2.762,2.762,0,0,0,.658,2.01A2,2,0,0,0,18.671-11.171Zm0-4.39c.813,0,1.268.658,1.268,1.842s-.467,1.842-1.268,1.842-1.28-.67-1.28-1.842S17.846-15.561,18.671-15.561ZM17.463-7.188l.5.407,7.249-9.175-.5-.383Zm6.555.335a1.991,1.991,0,0,0,1.412-.538,2.731,2.731,0,0,0,.658-2c0-1.615-.754-2.548-2.069-2.548S21.937-11,21.937-9.389a2.751,2.751,0,0,0,.658,2A1.95,1.95,0,0,0,24.018-6.853Zm0-4.378c.813,0,1.268.658,1.268,1.842,0,1.16-.467,1.83-1.268,1.83s-1.28-.67-1.28-1.83C22.739-10.573,23.193-11.231,24.018-11.231Zm3.792.251a4.217,4.217,0,0,1,1-.837,2.451,2.451,0,0,1,1.232-.311,3.252,3.252,0,0,1,2.153.909,5.959,5.959,0,0,0,1.663.969A3.774,3.774,0,0,0,35-10.059a3.231,3.231,0,0,0,1.579-.407A4.892,4.892,0,0,0,37.954-11.7l-.622-.538a3.19,3.19,0,0,1-1.364,1.16,2.326,2.326,0,0,1-.957.2,3.887,3.887,0,0,1-2.3-.981,7.346,7.346,0,0,0-1.124-.718,3.231,3.231,0,0,0-1.5-.347,3.794,3.794,0,0,0-2.883,1.412ZM39.1-8.97a3.107,3.107,0,0,0,.61,1.16,3.417,3.417,0,0,0,2.679.981c2,0,3.242-1,3.242-2.62a2.191,2.191,0,0,0-.8-1.806,2.566,2.566,0,0,0-1.471-.514,2.457,2.457,0,0,0,1.124-.431,2.1,2.1,0,0,0,.837-1.746c0-1.435-1.1-2.345-2.835-2.345a3.107,3.107,0,0,0-2.38.873,2.727,2.727,0,0,0-.646,1.2l.993.215a2.264,2.264,0,0,1,.383-.849,1.879,1.879,0,0,1,1.591-.634c1.208,0,1.926.6,1.926,1.627a1.647,1.647,0,0,1-.478,1.16,2.391,2.391,0,0,1-1.746.55,5.1,5.1,0,0,1-.885-.072v.945a8.388,8.388,0,0,1,.957-.06c1.591,0,2.44.646,2.44,1.83,0,1.136-.873,1.854-2.261,1.854a2.638,2.638,0,0,1-1.543-.431,1.806,1.806,0,0,1-.73-1.136ZM50.347-6.829a2.924,2.924,0,0,0,2.536-1.256,6.238,6.238,0,0,0,.837-3.457,8.234,8.234,0,0,0-.455-2.775,3.015,3.015,0,0,0-.718-1.1,2.947,2.947,0,0,0-2.189-.849A2.939,2.939,0,0,0,47.679-14.8a6.993,6.993,0,0,0-.694,3.254,8.265,8.265,0,0,0,.455,2.763,2.971,2.971,0,0,0,.718,1.1A2.985,2.985,0,0,0,50.347-6.829Zm0-8.613a2.021,2.021,0,0,1,1.878,1.089,6.777,6.777,0,0,1,.538,2.787,7.419,7.419,0,0,1-.371,2.416,2.355,2.355,0,0,1-.562.933,1.993,1.993,0,0,1-1.471.562A2.037,2.037,0,0,1,48.5-8.7a6.61,6.61,0,0,1-.562-2.847,7.419,7.419,0,0,1,.371-2.416,2.443,2.443,0,0,1,.538-.873A1.948,1.948,0,0,1,50.347-15.442Zm6.519,4.27a1.991,1.991,0,0,0,1.412-.538,2.762,2.762,0,0,0,.658-2.01c0-1.615-.766-2.548-2.069-2.548s-2.081.945-2.081,2.548a2.762,2.762,0,0,0,.658,2.01A2,2,0,0,0,56.866-11.171Zm0-4.39c.813,0,1.268.658,1.268,1.842s-.467,1.842-1.268,1.842-1.28-.67-1.28-1.842S56.041-15.561,56.866-15.561ZM55.658-7.188l.5.407,7.249-9.175-.5-.383Zm6.555.335a1.991,1.991,0,0,0,1.412-.538,2.731,2.731,0,0,0,.658-2c0-1.615-.754-2.548-2.069-2.548S60.131-11,60.131-9.389a2.751,2.751,0,0,0,.658,2A1.949,1.949,0,0,0,62.213-6.853Zm0-4.378c.813,0,1.268.658,1.268,1.842,0,1.16-.467,1.83-1.268,1.83s-1.28-.67-1.28-1.83C60.933-10.573,61.387-11.231,62.213-11.231ZM75.849-8.289a2.441,2.441,0,0,1-.323-.227A8.959,8.959,0,0,0,73.457-9.64c-.048-.754-.06-1.136-.084-2.536a15.741,15.741,0,0,0,1.77-.251,2.905,2.905,0,0,1,.335-.06l-.024-.789a8.89,8.89,0,0,1-2.093.407V-13.8c0-.347.012-.586.024-.993.478-.048.849-.1,1.28-.179l.682-.108-.024-.778a15.535,15.535,0,0,1-4.007.455,8.845,8.845,0,0,1-2.045-.167l-.036.789c.227,0,.287,0,.718.024.455.036.945.048,1.435.048.455,0,.754-.012,1.22-.036-.024.526-.024.766-.024.981,0,.144,0,.323.012.945-.574.024-1.041.036-1.435.036a8.337,8.337,0,0,1-1.986-.167l-.024.8h.1a1.852,1.852,0,0,1,.251.012c.873.048,1.16.06,1.7.06.514,0,.789-.012,1.423-.036.024,1.352.06,2.117.084,2.285a3.524,3.524,0,0,0-1.268-.215c-1.376,0-2.321.682-2.321,1.675s.861,1.651,2.2,1.651a2.111,2.111,0,0,0,2.022-.921,2.112,2.112,0,0,0,.156-.873,1.419,1.419,0,0,0-.024-.335c.06.024.06.024.191.084.024,0,.024,0,.263.144a7.014,7.014,0,0,1,1.567,1.16Zm-3.158-.849c.012.012.024.419.024.514,0,.813-.443,1.2-1.388,1.2-.885,0-1.423-.359-1.423-.945,0-.61.6-.981,1.579-.981A3.488,3.488,0,0,1,72.691-9.138ZM67.44-6.65a.687.687,0,0,1-.012-.144,11.8,11.8,0,0,1,1.089-3.541l-.574-.287a16.833,16.833,0,0,0-.694,1.89,3.311,3.311,0,0,1-.132.455l-.036-.012c0-.455-.012-.55-.012-.658,0-.3,0-.3-.012-.6-.012-.275-.024-.562-.024-.849a19.8,19.8,0,0,1,.419-4,11.183,11.183,0,0,1,.49-1.842l-.921-.144a5.256,5.256,0,0,1-.12.646,24.1,24.1,0,0,0-.634,5.251,23.118,23.118,0,0,0,.2,2.967,4.828,4.828,0,0,1,.108.909Zm12.991-9.605a5.174,5.174,0,0,1,.2.766,24.156,24.156,0,0,0,.873,3.337,7.435,7.435,0,0,0-1.567.981,2.588,2.588,0,0,0-1.065,2.034,1.986,1.986,0,0,0,1.483,1.962,8.138,8.138,0,0,0,2.656.323,24,24,0,0,0,2.644-.156l.407-.048.12-.012a3.143,3.143,0,0,1,.359-.012l-.1-.993a11.877,11.877,0,0,1-3.421.407c-2.345,0-3.266-.431-3.266-1.507,0-.993.885-1.782,2.931-2.608a31.675,31.675,0,0,1,3.6-1.16l-.359-.909a5.412,5.412,0,0,1-.766.323c-1.842.634-2.237.789-2.895,1.065a21.8,21.8,0,0,1-.9-3.959Zm4.39-.036a9.328,9.328,0,0,1,1.22,1.9l.61-.359A9.6,9.6,0,0,0,85.419-16.6Zm1.364-.646a10.032,10.032,0,0,1,1.22,1.878l.6-.335a9.568,9.568,0,0,0-1.244-1.866Zm8.8,2.069a3.442,3.442,0,0,1,1.388.3,3.153,3.153,0,0,1,1.9,3,3.611,3.611,0,0,1-2.117,3.349,7.17,7.17,0,0,1-2,.562,1.9,1.9,0,0,1,.419.8A9.254,9.254,0,0,0,96.4-7.4a4.356,4.356,0,0,0,2.739-4.127,4,4,0,0,0-1.16-2.919,4.631,4.631,0,0,0-3.29-1.184,5,5,0,0,0-3.864,1.591,4.976,4.976,0,0,0-1.256,3.3c0,1.675.849,2.919,1.986,2.919.861,0,1.567-.718,2.261-2.3A17.931,17.931,0,0,0,94.989-14.868Zm-.861.012a16.43,16.43,0,0,1-1.089,4.426c-.514,1.172-.993,1.734-1.5,1.734C90.9-8.7,90.4-9.58,90.4-10.729a4.137,4.137,0,0,1,1.95-3.565A3.778,3.778,0,0,1,94.127-14.856ZM3.791,2.812a5.53,5.53,0,0,1,.06-1H2.87a7.169,7.169,0,0,1,.048.993V8.315c0,.49.012.73.024.933a1.588,1.588,0,0,0,.49,1.148,4.335,4.335,0,0,0,2.62.49c.825,0,2.4-.084,3.17-.167l1.124-.12-.072-.945a7.961,7.961,0,0,1-1.184.239,23.663,23.663,0,0,1-2.739.191,12.474,12.474,0,0,1-1.412-.072A1.511,1.511,0,0,1,4.03,9.7c-.2-.2-.251-.478-.251-1.316V8.243a.21.21,0,0,0,.012-.072V6.425A18.2,18.2,0,0,0,9.557,4.391a4.235,4.235,0,0,1,.514-.263l-.61-.8a14.388,14.388,0,0,1-5.67,2.309ZM16.9,11.377a8.135,8.135,0,0,1-.06-1.268v-3.6a4.178,4.178,0,0,0-.048-.706l.024-.012a1.32,1.32,0,0,0,.371.2A24.389,24.389,0,0,1,21.65,8.362l.514-.885a29.666,29.666,0,0,0-5.323-2.524V2.716a7.509,7.509,0,0,1,.06-1.244H15.872a7.092,7.092,0,0,1,.072,1.22v7.428a7.694,7.694,0,0,1-.072,1.256ZM28.1,7.764v2.943c0,.3-.072.359-.383.359a3.987,3.987,0,0,1-.933-.12,2.021,2.021,0,0,1,.156.754,7.469,7.469,0,0,0,.825.048,1.4,1.4,0,0,0,.778-.156c.2-.132.275-.323.275-.813V2.609A9.755,9.755,0,0,1,28.863,1.4a5.835,5.835,0,0,1-.969.06H26.841a7.112,7.112,0,0,1-1.065-.06,15.6,15.6,0,0,1,.06,1.842,37.333,37.333,0,0,1-.311,6.2,4.971,4.971,0,0,1-.682,1.854,2.53,2.53,0,0,1,.61.586,8.282,8.282,0,0,0,1.017-4.115Zm-1.6-.67.048-2.165H28.1V7.094Zm.06-2.847V2.142H28.1V4.248ZM30.562,2.3a7.126,7.126,0,0,1,.072-1.136H29.76a7.633,7.633,0,0,1,.072,1.172V4.4c0,.478.084.67.359.813a5.614,5.614,0,0,0,2.105.227c1.77,0,2.452-.06,2.727-.263.3-.215.478-.706.586-1.6a2.014,2.014,0,0,1-.73-.347,2.584,2.584,0,0,1-.3,1.316c-.156.179-.586.227-2.093.227-1.711,0-1.926-.06-1.926-.49V3.41a19.363,19.363,0,0,0,4.677-1.22l-.586-.634a12,12,0,0,1-3.529,1.112c-.383.072-.383.072-.562.108Zm-.622,8.349a7.374,7.374,0,0,1-.06,1.2h.778v-.634h3.6v.634h.789a7.982,7.982,0,0,1-.072-1.2V7.286a6.845,6.845,0,0,1,.048-.945,7.62,7.62,0,0,1-1.041.048H30.956a8.138,8.138,0,0,1-1.065-.048,6.957,6.957,0,0,1,.048.945Zm.718-3.6h3.6V8.41h-3.6Zm0,2.01h3.6v1.5h-3.6Zm12.357-5.3a15.151,15.151,0,0,1-.622,4.761,6.52,6.52,0,0,1-1.519,2.656,2.365,2.365,0,0,1,.538.658,8.663,8.663,0,0,0,1.794-3.373,12.142,12.142,0,0,0,.419-2.177h2.5a24.4,24.4,0,0,1-.335,3.924c-.144.622-.263.73-.778.73a5.271,5.271,0,0,1-1.352-.191,3.379,3.379,0,0,1,.167.813,8.366,8.366,0,0,0,1.268.108c1.065,0,1.316-.323,1.543-1.974a28.248,28.248,0,0,0,.227-3.158c.024-.574.036-.754.06-.981a8.2,8.2,0,0,1-1.041.048h-2.2c.06-.813.072-1.112.084-1.842h2.691a8.474,8.474,0,0,1,1.244.072V2.98a8.252,8.252,0,0,1-1.244.072H44.485V2.226a4.926,4.926,0,0,1,.072-1.017h-.9a6.08,6.08,0,0,1,.072,1v.837H42.44a7.716,7.716,0,0,1-1.22-.06v.825a11.626,11.626,0,0,1,1.208-.06ZM40.071,7.908v2.751c0,.287-.072.359-.359.359a5.211,5.211,0,0,1-.945-.12,2.233,2.233,0,0,1,.156.754,7.363,7.363,0,0,0,.837.048,1.282,1.282,0,0,0,.718-.132c.215-.144.311-.395.311-.837v-8a9.508,9.508,0,0,1,.048-1.208,6.579,6.579,0,0,1-1,.06H38.756a7.3,7.3,0,0,1-1.112-.06,17,17,0,0,1,.072,2.153c0,4.916-.167,6.268-.945,7.572a2.261,2.261,0,0,1,.634.586,7.816,7.816,0,0,0,.957-3.924Zm0-3.493H38.433l.012-.514V2.262h1.627Zm0,.682V7.238H38.385L38.421,5.1Zm8.816,1.938a3.785,3.785,0,0,1,.67-.072c.395-.024.742-.048,1.208-.084v3.816a8.321,8.321,0,0,1-.072,1.2h.849a8.093,8.093,0,0,1-.072-1.2V6.807c.5-.048.61-.06,1.089-.132.072.251.108.371.191.754l.61-.287a14.553,14.553,0,0,0-.909-2.333l-.562.263c.227.467.3.61.455,1-.658.084-1.017.12-1.854.179.574-.718,1.364-1.842,2.01-2.859.155-.251.251-.383.347-.514L52.141,2.5a10.737,10.737,0,0,1-1.184,2.081c-.347-.419-.359-.443-.718-.849a21.467,21.467,0,0,0,1.077-1.878,5.224,5.224,0,0,1,.3-.538l-.754-.3A8.023,8.023,0,0,1,49.8,3.255c-.215-.227-.251-.263-.538-.55l-.431.562a16.858,16.858,0,0,1,1.734,1.89c-.287.419-.443.622-.837,1.136-.311.012-.383.012-.478.012a2.842,2.842,0,0,1-.467-.036Zm.526.6a8.209,8.209,0,0,1-.646,3.182l.658.323a10.99,10.99,0,0,0,.67-3.385Zm2.524.108a11.9,11.9,0,0,1,.586,2.859l.658-.179a16.487,16.487,0,0,0-.634-2.871ZM53.552,10.5a10.356,10.356,0,0,1-.072,1.316h.789v-.778h4.163v.766h.789a10.425,10.425,0,0,1-.072-1.328V3.063A13.3,13.3,0,0,1,59.2,1.688a9.149,9.149,0,0,1-1.208.048h-3.3A9.681,9.681,0,0,1,53.5,1.688c.036.359.048.766.048,1.328Zm.706-8.074h1.675V5.91H54.258Zm2.368,0h1.818V5.922H56.627ZM54.258,6.58h1.675v3.792H54.258Zm2.368.012h1.818v3.78H56.627Zm7.129,1.256v2.871c0,.275-.072.347-.347.347a6.383,6.383,0,0,1-1.053-.108,1.973,1.973,0,0,1,.156.754c.383.024.586.036.885.036.849,0,1.053-.191,1.053-.969v-8.1a9.654,9.654,0,0,1,.048-1.2,5.764,5.764,0,0,1-.921.048H62.332a6.993,6.993,0,0,1-.933-.048,22.018,22.018,0,0,1,.06,2.416,39.185,39.185,0,0,1-.239,5.562,4.568,4.568,0,0,1-.658,1.854,2.6,2.6,0,0,1,.61.55,7.935,7.935,0,0,0,.921-4.019Zm0-3.493H62.165V2.214h1.591Zm0,.646V7.2H62.117c.012-.3.012-.478.024-1.2,0-.215,0-.562.012-1Zm6.579-1.818a25.255,25.255,0,0,1-.347,4.737c-.072.323-.191.419-.514.419a5.94,5.94,0,0,1-1.065-.1,2.26,2.26,0,0,1,.144.73c.455.036.694.048.969.048.969,0,1.136-.251,1.328-1.854.084-.766.191-2.345.215-3.278a12.282,12.282,0,0,1,.072-1.447A7.591,7.591,0,0,1,70.1,2.5H66.687c.1-.215.144-.359.227-.6.132-.371.191-.538.239-.67l-.813-.156a6.907,6.907,0,0,1-1.818,3.6,1.633,1.633,0,0,1,.49.55,8.53,8.53,0,0,0,1.376-2.045ZM66.328,7.489H67.99c.419,0,.706.012,1.017.036-.024-.311-.036-.55-.036-.945V5.312a8.49,8.49,0,0,1,.036-.969,8.167,8.167,0,0,1-1.053.048H66.83a5.98,5.98,0,0,1-.969-.048v.766a5.98,5.98,0,0,1,.969-.048h1.435v1.77H66.6c-.443,0-.718-.012-1.053-.036A9.305,9.305,0,0,1,65.6,7.884v2.668c0,.478.084.682.347.825a5.455,5.455,0,0,0,2.261.239c1.866,0,2.524-.084,2.823-.371.275-.251.419-.766.514-1.818A2.561,2.561,0,0,1,70.79,9.1c-.024.933-.1,1.364-.263,1.555-.2.215-.67.275-2.345.275a7.726,7.726,0,0,1-1.447-.084c-.3-.06-.407-.167-.407-.431Zm-65.3,17.5a2.625,2.625,0,0,1,.5-.06c.359-.024.383-.024,1.4-.108v3.84a8.8,8.8,0,0,1-.072,1.2h.849a8.438,8.438,0,0,1-.072-1.2v-3.9c.383-.036.562-.06.921-.108.072.251.108.359.191.706l.6-.251a12.994,12.994,0,0,0-.873-2.285l-.538.227a6.507,6.507,0,0,1,.419,1,17.707,17.707,0,0,1-1.818.167A32,32,0,0,0,4.688,21.09c.156-.227.2-.3.323-.455l-.706-.383a14.009,14.009,0,0,1-1.232,2.213c-.323-.371-.395-.431-.754-.8a21.1,21.1,0,0,0,1.172-1.938c.12-.215.144-.251.239-.407L3,19.009a8.364,8.364,0,0,1-1.112,2.213c-.2-.191-.287-.275-.55-.514l-.419.562a12.164,12.164,0,0,1,1.758,1.758c-.335.49-.335.49-.909,1.232H1.387a3.208,3.208,0,0,1-.467-.024Zm7.6-4.916A6.237,6.237,0,0,1,8.7,19.08H7.834a6.238,6.238,0,0,1,.072.993v.682a18.265,18.265,0,0,1-2.763.3,2.015,2.015,0,0,1,.323.694c1.065-.108,1.543-.167,2.44-.323v4.282h-1.5V23.482a6.756,6.756,0,0,1,.06-1.053H5.657a10.3,10.3,0,0,1,.06,1.089v2.668a7.153,7.153,0,0,1-.072,1.077h.766v-.909h1.5v2.416c0,.694.287.837,1.7.837,1.83,0,2.057-.227,2.249-2.273a2.461,2.461,0,0,1-.742-.359,4.429,4.429,0,0,1-.251,1.687c-.12.191-.443.263-1.256.263-.885,0-.981-.036-.981-.359V26.353H9.891a9.547,9.547,0,0,1,1.136.048,8.6,8.6,0,0,1-.036-1.089V23.351a8.835,8.835,0,0,1,.06-1.029h-.813a9.118,9.118,0,0,1,.06,1.017v2.368H8.623V21.293a15.036,15.036,0,0,0,2.093-.6c.347-.12.395-.132.6-.2l-.526-.646a7.36,7.36,0,0,1-2.165.766ZM1.65,25.5a9.7,9.7,0,0,1-.718,3.182l.646.335a12.941,12.941,0,0,0,.742-3.373Zm2.44.156a12.662,12.662,0,0,1,.586,2.7l.634-.2a18.236,18.236,0,0,0-.646-2.7ZM18.9,24.667a19.1,19.1,0,0,0,3.768-2.62c.562-.514.562-.514.73-.658l-.694-.634a8.429,8.429,0,0,1-1.711,1.663A16.25,16.25,0,0,1,18.9,23.793V20.408a9.334,9.334,0,0,1,.072-1.292h-.933a11.335,11.335,0,0,1,.072,1.292v7.931c0,.933.311,1.077,2.309,1.077,1.794,0,2.38-.108,2.679-.5a5.456,5.456,0,0,0,.562-2.345,2.73,2.73,0,0,1-.789-.371,5.269,5.269,0,0,1-.407,2.189c-.179.215-.634.287-2,.287-1.388,0-1.567-.06-1.567-.478Zm-4.031,3.684a14.191,14.191,0,0,1-.084,1.483h.933c-.048-.49-.072-.981-.072-1.447V22.119c.443-.993.849-1.95.957-2.225.2-.55.2-.55.251-.67l-.885-.251a5.323,5.323,0,0,1-.407,1.435,11.2,11.2,0,0,1-2.7,4.031,4.347,4.347,0,0,1,.514.694,9.631,9.631,0,0,0,1.519-2.01c-.024.634-.024.789-.024,1.459Zm11.543-6.208h-.443a4.431,4.431,0,0,1-.981-.072v.813a4.368,4.368,0,0,1,.981-.072h.443V26.76a7.912,7.912,0,0,1-1.591.514l.239.825a3.8,3.8,0,0,1,.5-.227,28.893,28.893,0,0,0,2.979-1.328l-.072-.694c-.574.287-.766.383-1.316.61V22.812h.275a7.7,7.7,0,0,1,.969.048v-.789a4.588,4.588,0,0,1-.969.072h-.275V20.276a6.185,6.185,0,0,1,.072-1.124h-.885a7.555,7.555,0,0,1,.072,1.136Zm5.778-1.782v-.407a4.771,4.771,0,0,1,.06-.921h-.873a4.4,4.4,0,0,1,.072.909v.419H29.664a7.232,7.232,0,0,1-1.16-.06v.789a6.976,6.976,0,0,1,1.148-.06h4.605a6.951,6.951,0,0,1,1.172.06V20.3a9.156,9.156,0,0,1-1.184.06Zm-2.943,3.146a6.563,6.563,0,0,1-1.124-.06v.813a8.862,8.862,0,0,1,1.16-.06h5.18a9.572,9.572,0,0,1,1.184.06v-.813a8.809,8.809,0,0,1-1.172.06H33.265a17.021,17.021,0,0,0,.993-2.117l-.754-.227a9.305,9.305,0,0,1-.993,2.345Zm.215-2.117a8.523,8.523,0,0,1,.766,1.962l.682-.251a11.624,11.624,0,0,0-.73-1.926Zm.359,7.6h4.067v.73H34.7a7.861,7.861,0,0,1-.048-.993v-2.38c0-.514.012-.778.036-1.041a6.186,6.186,0,0,1-.909.048H30a7.58,7.58,0,0,1-.969-.048,7.908,7.908,0,0,1,.048,1.017v2.321a8.345,8.345,0,0,1-.06,1.077h.8Zm0-2.967H33.9v2.3H29.82ZM41.7,27.31a6.173,6.173,0,0,0,1.926,1.555,10.32,10.32,0,0,0,3.7,1.053,2.591,2.591,0,0,1,.431-.706,11.467,11.467,0,0,1-3.182-.61,15.63,15.63,0,0,0,2.165-1.459l-.61-.443a8.612,8.612,0,0,1-2.213,1.615,4.1,4.1,0,0,1-1.376-1H44.4a8.025,8.025,0,0,1,.957.036c-.024-.251-.036-.538-.036-1.029V24.774a10.726,10.726,0,0,0,2.165,1.316,2.1,2.1,0,0,1,.467-.67,7.822,7.822,0,0,1-2.057-.969,6.67,6.67,0,0,1-1.411-1.268h1.89a8.029,8.029,0,0,1,1.184.072v-.73a6.275,6.275,0,0,1-1.184.072h-3.84v-.73H45.61a6.235,6.235,0,0,1,1.041.06v-.706a5.9,5.9,0,0,1-1.041.06H42.536v-.73h3.349a7.964,7.964,0,0,1,1.172.072v-.73a7.421,7.421,0,0,1-1.172.072h-1.6c.2-.263.335-.443.694-.993l-.766-.251a6.98,6.98,0,0,1-.742,1.244H41.052a6.446,6.446,0,0,0-.9-1.232l-.706.239a5.021,5.021,0,0,1,.778.993H38.636a7.527,7.527,0,0,1-1.172-.072v.73a7.964,7.964,0,0,1,1.172-.072h3.182v.73H38.935a5.965,5.965,0,0,1-1.053-.06v.706a6.3,6.3,0,0,1,1.053-.06h2.883v.73H38.145a7.487,7.487,0,0,1-1.184-.072v.73a7.807,7.807,0,0,1,1.184-.072h1.9a5.958,5.958,0,0,1-1.28,1.292,7.159,7.159,0,0,1-2.225,1.1,2.013,2.013,0,0,1,.5.658,9.524,9.524,0,0,0,1.95-1.148V29c-.694.084-1.16.132-1.4.132a.234.234,0,0,1-.084-.012l.167.766c.2-.048.359-.084.586-.12a40.378,40.378,0,0,0,4.366-.789l-.036-.622a26.147,26.147,0,0,1-2.871.55V27.31Zm-1.627-3.158a7.451,7.451,0,0,0,.813-.969h2.823c.467.538.61.682.9.969H42.631a3.441,3.441,0,0,1,.048-.706h-.837a2.692,2.692,0,0,1,.06.706Zm-.347.562h4.9v.742h-4.9Zm0,1.28h4.9v.754h-4.9Zm17.429-1.22a7.569,7.569,0,0,0-1.136-1.268l-.478.431a5.008,5.008,0,0,1,1.124,1.34ZM58.636,22.3a5.424,5.424,0,0,1-.9.048H55.825c.1-.251.108-.275.132-.335.144-.383.144-.383.191-.514l-.766-.2a6.871,6.871,0,0,1-.658,1.914,8.934,8.934,0,0,1-1.519,2.153,1.79,1.79,0,0,1,.538.5c.335-.419.419-.526.658-.861a9.339,9.339,0,0,0,1.531,2.2,8.175,8.175,0,0,1-2.656,1.9,2.023,2.023,0,0,1,.526.646,9.67,9.67,0,0,0,2.62-2.034,10.256,10.256,0,0,0,3.038,2.034,3.3,3.3,0,0,1,.455-.73,9.007,9.007,0,0,1-3.038-1.83,10.832,10.832,0,0,0,1.89-3.672c.156-.49.179-.574.263-.8Zm-.455.682a9.854,9.854,0,0,1-1.806,3.708,9.026,9.026,0,0,1-1.567-2.309,12.521,12.521,0,0,0,.754-1.4Zm-3.29-2.668H52.619a8.233,8.233,0,0,1-1.065-.072v.8a10.546,10.546,0,0,1,1.065-.06H58.5c.287,0,.61.024,1.065.06v-.8a9.046,9.046,0,0,1-1.089.072H55.646v-.55a3.571,3.571,0,0,1,.06-.8h-.873a3.56,3.56,0,0,1,.06.813Zm-5.849-.646a7.311,7.311,0,0,1,1.723,1.543l.514-.562a8.694,8.694,0,0,0-1.734-1.5Zm-.383,2.99a8.573,8.573,0,0,1,1.878,1.471L51,23.506a12.658,12.658,0,0,0-1.89-1.4Zm1.711,2.99a9.2,9.2,0,0,1-1.639,3.361l.658.6a2.421,2.421,0,0,1,.156-.275c.036-.06.108-.2.239-.431a13.953,13.953,0,0,0,1.172-2.787Zm1.782,2.763a10.692,10.692,0,0,1-.072,1.412h.873a11.672,11.672,0,0,1-.072-1.376V23.614a16.329,16.329,0,0,0,.873-1.687c.132-.275.132-.275.2-.431l-.766-.287a8.561,8.561,0,0,1-1.412,2.811,5.578,5.578,0,0,1-1.041,1.136,2.015,2.015,0,0,1,.478.646,5.261,5.261,0,0,0,.969-1.3c-.024.55-.036.837-.036,1.352Zm14.33-6.675h2.309a10.9,10.9,0,0,1,1.388.06v-.921a8.7,8.7,0,0,1-1.4.072H63.529a8.7,8.7,0,0,1-1.4-.072V21.8a10.9,10.9,0,0,1,1.388-.06H65.6v5.3h-2.99a8.531,8.531,0,0,1-1.388-.072V27.9a10.919,10.919,0,0,1,1.376-.06H69.7a11.011,11.011,0,0,1,1.388.06v-.933a8.607,8.607,0,0,1-1.4.072H66.483Zm10.742.048-2.44.383a8.961,8.961,0,0,1-1.244.12l.167.909a9.853,9.853,0,0,1,1.2-.263l2.464-.383.431,2.416-3.182.514a6.3,6.3,0,0,1-1.184.108l.156.909a6.334,6.334,0,0,1,1.148-.239l3.206-.514.49,2.679a9.533,9.533,0,0,1,.144,1.148l.957-.179a6.491,6.491,0,0,1-.263-1.136l-.49-2.644,3-.478c.084-.012.144-.024.275-.048.2-.036.323-.06.371-.06a3.535,3.535,0,0,1,.526-.06l-.167-.885a7.351,7.351,0,0,1-1.184.275l-2.967.478-.455-2.416L80.9,22c.742-.12.742-.12,1.065-.156l-.167-.861a5.619,5.619,0,0,1-1.053.239l-2.7.419L77.8,20.324a6.164,6.164,0,0,1-.132-1.017l-.945.156a4.079,4.079,0,0,1,.263,1.017ZM94.163,28.3a29.748,29.748,0,0,0-3.983-3.589,14.465,14.465,0,0,0,1.974-3.349,2.233,2.233,0,0,1,.335-.586l-.5-.514a2.23,2.23,0,0,1-.766.1l-4.27.048h-.311a5.622,5.622,0,0,1-.945-.06l.024.969a8.049,8.049,0,0,1,1.232-.1l4-.06a2.032,2.032,0,0,0,.287-.012.253.253,0,0,1-.036.084c-.024.06-.036.072-.06.144a12.965,12.965,0,0,1-4.27,5.395,9.629,9.629,0,0,1-2.428,1.376,2.662,2.662,0,0,1,.586.789A15.4,15.4,0,0,0,87.369,27.5a12.985,12.985,0,0,0,2.285-2.141,22.249,22.249,0,0,1,3.828,3.7Z" transform="translate(936.826 3249.03)"/>
      <path id="パス_180" data-name="パス 180" d="M249.125,367.974l-14.261-14.261,14.261-14.261" transform="translate(677.811 2949.611)" fill="none" stroke="#1a1311" stroke-linecap="round" stroke-miterlimit="10" stroke-width="0.9"/>
      <path id="パス_213" data-name="パス 213" d="M4.647-13.7a6.416,6.416,0,0,1-1.2-.072v.8a8.941,8.941,0,0,1,1.172-.072H5.987A6.869,6.869,0,0,1,4.8-11.652a6.405,6.405,0,0,1-1.77,1.124,1.99,1.99,0,0,1,.574.61,8.04,8.04,0,0,0,2.022-1.567,9.127,9.127,0,0,0,1.148-1.555H7.841a5.547,5.547,0,0,0,1,1.4,8.759,8.759,0,0,0,2.5,1.806,3.549,3.549,0,0,1,.467-.742,6.244,6.244,0,0,1-2.093-1.172,4.658,4.658,0,0,1-1.112-1.292h1.746a9.126,9.126,0,0,1,1.256.072v-.8a7.594,7.594,0,0,1-1.256.072H7.112a6.684,6.684,0,0,0,.538-1.567,24.016,24.016,0,0,0,2.512-.55c.156-.048.239-.072.287-.084.167-.048.167-.048.275-.072l-.574-.67A15.91,15.91,0,0,1,4.061-15.6a2.251,2.251,0,0,1,.323.682c1.328-.084,1.543-.108,2.476-.227a5.9,5.9,0,0,1-.5,1.447ZM1.322-15.922a9.049,9.049,0,0,1,1.986,1.591l.467-.622A13.026,13.026,0,0,0,1.8-16.461ZM.7-12.956a8.893,8.893,0,0,1,2.129,1.483l.443-.658a12,12,0,0,0-2.153-1.4Zm1.782,2.811A10.585,10.585,0,0,1,.832-6.508l.706.586c.144-.3.144-.3.263-.526A18.96,18.96,0,0,0,3.116-9.7Zm4.486-.227a6.908,6.908,0,0,1,.084-1.148H6.167a7.307,7.307,0,0,1,.084,1.172v3.373c0,.239-.1.311-.407.311a5.873,5.873,0,0,1-1.077-.108,2.732,2.732,0,0,1,.156.754c.311.024.706.048.945.048.849,0,1.1-.191,1.1-.837Zm.634.55a15.214,15.214,0,0,1,.861,3.206l.73-.3a17.615,17.615,0,0,0-.969-3.1Zm1.746.12a12.535,12.535,0,0,1,1.687,3.086l.658-.455a15.571,15.571,0,0,0-1.758-2.943ZM3.942-6.532A11.118,11.118,0,0,0,5.329-9.786l-.658-.239a7.994,7.994,0,0,1-.622,1.806,6.006,6.006,0,0,1-.778,1.28Zm11.747-7.847A13.441,13.441,0,0,1,15.8-16.64h-.909a5.475,5.475,0,0,1,.084,1.3c0,.371,0,.622-.024.957h-.694a7.088,7.088,0,0,1-1.316-.084v.885a7.128,7.128,0,0,1,1.256-.084h.718a13.127,13.127,0,0,1-1.053,4.976A7.354,7.354,0,0,1,12.518-6.7a2.718,2.718,0,0,1,.61.67,9.223,9.223,0,0,0,1.208-1.83,9.872,9.872,0,0,0,.873-2.4,18.728,18.728,0,0,0,.455-3.4h1.746c-.012,1.28-.036,1.95-.1,3.086a16.7,16.7,0,0,1-.455,3.218c-.084.2-.239.287-.562.287a7.232,7.232,0,0,1-1.4-.191,3.008,3.008,0,0,1,.12.789,10.711,10.711,0,0,0,1.459.132c.825,0,1.077-.275,1.292-1.471a36.654,36.654,0,0,0,.395-5.1,9.434,9.434,0,0,1,.06-1.519,11.663,11.663,0,0,1-1.244.048Zm4.318,7.2h2.476v.861h.825a8.557,8.557,0,0,1-.072-1.172v-6.436a9.051,9.051,0,0,1,.06-1.256,6.876,6.876,0,0,1-1.041.06h-2.01a6.849,6.849,0,0,1-1.053-.06,9.262,9.262,0,0,1,.06,1.256v6.34a11.041,11.041,0,0,1-.072,1.364h.825Zm0-7.249h2.476v6.555H20.007Zm6.16-.383a7.308,7.308,0,0,0,1.7,1.639,12.2,12.2,0,0,1-3.134,1.148,2.264,2.264,0,0,1,.335.706c.6-.179.813-.251,1.112-.359a14.48,14.48,0,0,1-.156,2.6,4.533,4.533,0,0,1-1.34,2.668,2.479,2.479,0,0,1,.622.55,5.546,5.546,0,0,0,1.328-2.572h3.29v1.28a7.65,7.65,0,0,1-.06,1.2h.861a6.726,6.726,0,0,1-.072-1.2v-4.725c.275.084.467.132.993.275a2.447,2.447,0,0,1,.323-.742,9.725,9.725,0,0,1-2.823-.873,6.023,6.023,0,0,0,1.579-1.591,7.041,7.041,0,0,1,1.065.048v-.778a7,7,0,0,1-1.112.072H28.834v-.144a5.163,5.163,0,0,1,.06-.981H28a4.244,4.244,0,0,1,.072.981v.144H26.035a7.156,7.156,0,0,1-1.1-.072v.8a7.622,7.622,0,0,1,1.077-.072Zm3.708,0A5.114,5.114,0,0,1,28.5-13.554,5.354,5.354,0,0,1,27-14.81Zm.048,3.648H26.885l.012-.8a11.94,11.94,0,0,0,1.615-.813,8.686,8.686,0,0,0,1.412.646Zm0,.67V-9.1h-3.17a12.894,12.894,0,0,0,.108-1.388Zm2.237-5.2a7.319,7.319,0,0,1,.06,1.256v4.773a8.448,8.448,0,0,1-.06,1.34h.861a8.072,8.072,0,0,1-.06-1.34v-4.773a7.865,7.865,0,0,1,.06-1.256Zm2.225-.778a8.836,8.836,0,0,1,.084,1.435v7.955c0,.311-.084.359-.562.359a13.208,13.208,0,0,1-1.5-.12,2.146,2.146,0,0,1,.227.766c.742.036.969.048,1.292.048,1.041,0,1.292-.2,1.292-1.053v-7.943a8.434,8.434,0,0,1,.084-1.447Z" transform="translate(938.41 3314.59)"/>
      <path id="パス_181" data-name="パス 181" d="M249.125,367.974l-14.261-14.261,14.261-14.261" transform="translate(677.811 3000.561)" fill="none" stroke="#1a1311" stroke-linecap="round" stroke-miterlimit="10" stroke-width="0.9"/>
      <path id="パス_214" data-name="パス 214" d="M10.242-14.59a9.937,9.937,0,0,1-2.524,2.751,7.493,7.493,0,0,1-1-2.56v-.825a6.38,6.38,0,0,1,.1-1.2H5.864a7.875,7.875,0,0,1,.084,1.208v8.17c0,.287-.072.347-.407.347a8.779,8.779,0,0,1-1.6-.167,2.38,2.38,0,0,1,.191.825,14.479,14.479,0,0,0,1.519.084c.849,0,1.089-.2,1.089-.957v-3.541c0-.634-.024-1.292-.1-2.333a7.847,7.847,0,0,0,.634,1.519A10.554,10.554,0,0,0,8.627-9.279,10.208,10.208,0,0,0,11.2-7.09a2.729,2.729,0,0,1,.634-.754A8.679,8.679,0,0,1,9.5-9.518a10.961,10.961,0,0,1-1.412-1.711c.682-.538.682-.538,1.017-.837.443-.407,1.256-1.232,1.543-1.567A3.7,3.7,0,0,1,10.984-14ZM4.871-13.573a7.573,7.573,0,0,1-1.136.048H2.455a7.142,7.142,0,0,1-1.16-.06v.873a6.922,6.922,0,0,1,1.136-.072H4.4A8.747,8.747,0,0,1,2.826-9.578,7.9,7.9,0,0,1,.84-7.712a2.7,2.7,0,0,1,.67.6,10.228,10.228,0,0,0,3.565-5.275c.144-.455.156-.5.251-.742Z" transform="translate(938.354 3365.451)"/>
    </g>
    <text id="他社" transform="translate(884 3114)" font-size="28" font-family="HiraginoSans-W5, Hiragino Sans" letter-spacing="0.13em"><tspan x="-29.82" y="0">他社</tspan></text>
  </g>
</svg>
