<svg xmlns="http://www.w3.org/2000/svg" width="285.047" height="246.951" viewBox="0 0 285.047 246.951">
  <g id="グループ_327" data-name="グループ 327" transform="translate(-330.521 -3089.5)">
    <g id="グループ_325" data-name="グループ 325" transform="translate(125.346 -59.009)">
      <path id="パス_152" data-name="パス 152" d="M273.46,285.214V460.98a12.2,12.2,0,0,1-12.2,12.2H155.236a12.2,12.2,0,0,1-12.2-12.2V309.266l-19.393-22.732a2.033,2.033,0,0,1,1.547-3.353h146.24A2.032,2.032,0,0,1,273.46,285.214Z" transform="translate(82.504 2921.828)" fill="#fff" stroke="#36a8a2" stroke-linejoin="round" stroke-width="0.9"/>
      <path id="パス_153" data-name="パス 153" d="M146.776,457.315a4.072,4.072,0,0,1-4.066-4.068l-.1-152.283H256.868V453.247a4.073,4.073,0,0,1-4.068,4.068Z" transform="translate(90.964 2929.561)" fill="#dd3a7c"/>
      <line id="線_18" data-name="線 18" y1="127.874" transform="translate(326.18 3244.763)" fill="none" stroke="#fff" stroke-linejoin="round" stroke-width="0.9"/>
      <line id="線_19" data-name="線 19" x2="14.632" transform="translate(326.18 3244.763)" fill="none" stroke="#fff" stroke-linecap="round" stroke-linejoin="round" stroke-width="0.9"/>
      <line id="線_20" data-name="線 20" x2="14.632" transform="translate(326.18 3372.637)" fill="none" stroke="#fff" stroke-linecap="round" stroke-linejoin="round" stroke-width="0.9"/>
      <line id="線_21" data-name="線 21" x2="14.632" transform="translate(326.18 3347.063)" fill="none" stroke="#fff" stroke-linecap="round" stroke-linejoin="round" stroke-width="0.9"/>
      <line id="線_22" data-name="線 22" x2="14.632" transform="translate(326.18 3321.488)" fill="none" stroke="#fff" stroke-linecap="round" stroke-linejoin="round" stroke-width="0.9"/>
      <line id="線_23" data-name="線 23" x2="14.632" transform="translate(326.18 3295.913)" fill="none" stroke="#fff" stroke-linecap="round" stroke-linejoin="round" stroke-width="0.9"/>
      <line id="線_24" data-name="線 24" x2="14.632" transform="translate(326.18 3270.338)" fill="none" stroke="#fff" stroke-linecap="round" stroke-linejoin="round" stroke-width="0.9"/>
      <path id="パス_154" data-name="パス 154" d="M149.452,347.426a14.442,14.442,0,0,0,2.477.151h1.88a17.024,17.024,0,0,0,2.477-.151,48.868,48.868,0,0,0-.268,4.953v14.5a18.994,18.994,0,0,0,.238,3.37h-2.834a18.912,18.912,0,0,0,.238-3.37V349.605h-1.611a17.853,17.853,0,0,0-2.6.179Z" transform="translate(93.941 2949.765)" fill="#fff"/>
      <path id="パス_155" data-name="パス 155" d="M161.173,368.665a7.411,7.411,0,0,1-1.791-2.746,20.609,20.609,0,0,1-1.134-6.892c0-3.164.686-6.388,1.73-8.118a7.993,7.993,0,0,1,12.144-1.551,7.516,7.516,0,0,1,1.791,2.745,20.544,20.544,0,0,1,1.135,6.924c0,3.61-.776,6.8-2.089,8.622a7.3,7.3,0,0,1-6.326,3.135A7.442,7.442,0,0,1,161.173,368.665Zm1.73-17.845A6.1,6.1,0,0,0,161.561,353a18.5,18.5,0,0,0-.925,6.029,16.481,16.481,0,0,0,1.4,7.1,5.08,5.08,0,0,0,4.624,2.6,4.972,4.972,0,0,0,3.67-1.4,5.873,5.873,0,0,0,1.4-2.327,18.5,18.5,0,0,0,.925-6.028,16.92,16.92,0,0,0-1.343-6.953,5.044,5.044,0,0,0-4.685-2.716A4.861,4.861,0,0,0,162.9,350.82Z" transform="translate(97.766 2949.683)" fill="#fff"/>
      <path id="パス_156" data-name="パス 156" d="M174.836,368.665a7.429,7.429,0,0,1-1.791-2.746,20.646,20.646,0,0,1-1.134-6.892,17.466,17.466,0,0,1,1.73-8.118,7.995,7.995,0,0,1,12.146-1.551,7.5,7.5,0,0,1,1.791,2.745,20.543,20.543,0,0,1,1.134,6.924c0,3.61-.775,6.8-2.088,8.622a7.3,7.3,0,0,1-6.328,3.135A7.445,7.445,0,0,1,174.836,368.665Zm1.732-17.845A6.076,6.076,0,0,0,175.225,353a18.5,18.5,0,0,0-.925,6.029,16.5,16.5,0,0,0,1.4,7.1,5.082,5.082,0,0,0,4.626,2.6,4.975,4.975,0,0,0,3.67-1.4A5.886,5.886,0,0,0,185.4,365a18.457,18.457,0,0,0,.927-6.028,16.894,16.894,0,0,0-1.344-6.953A5.041,5.041,0,0,0,180.3,349.3,4.857,4.857,0,0,0,176.568,350.82Z" transform="translate(103.707 2949.683)" fill="#fff"/>
      <path id="パス_157" data-name="パス 157" d="M186.412,360a4.97,4.97,0,0,1-1.184-3.616c0-2.884,1.377-4.584,3.745-4.584,2.346,0,3.723,1.679,3.723,4.584A4.97,4.97,0,0,1,191.513,360a3.842,3.842,0,0,1-5.1,0Zm.258-3.616c0,2.108.839,3.314,2.3,3.314,1.442,0,2.281-1.207,2.281-3.314,0-2.131-.818-3.314-2.281-3.314C187.488,353.071,186.67,354.276,186.67,356.385Zm13.172-4.713.9.689L187.7,368.868l-.9-.733Zm-3.809,16.1a4.944,4.944,0,0,1-1.184-3.594c0-2.9,1.377-4.583,3.745-4.583s3.723,1.679,3.723,4.583a4.9,4.9,0,0,1-1.185,3.594,3.57,3.57,0,0,1-2.538.97A3.509,3.509,0,0,1,196.032,367.769Zm.258-3.594c0,2.088.839,3.293,2.3,3.293,1.442,0,2.281-1.205,2.281-3.293,0-2.129-.819-3.313-2.281-3.313C197.108,360.862,196.291,362.046,196.291,364.175Z" transform="translate(109.498 2951.611)" fill="#fff"/>
      <path id="パス_171" data-name="パス 171" d="M249.125,367.974l-14.261-14.261,14.261-14.261" transform="translate(135.549 2933.661)" fill="none" stroke="#1a1311" stroke-linecap="round" stroke-miterlimit="10" stroke-width="0.9"/>
      <path id="パス_211" data-name="パス 211" d="M3.791-14.906a5.53,5.53,0,0,1,.06-1H2.87a7.169,7.169,0,0,1,.048.993V-9.4c0,.49.012.73.024.933a1.588,1.588,0,0,0,.49,1.148,4.335,4.335,0,0,0,2.62.49c.825,0,2.4-.084,3.17-.167l1.124-.12-.072-.945a7.962,7.962,0,0,1-1.184.239,23.664,23.664,0,0,1-2.739.191A12.475,12.475,0,0,1,4.939-7.7a1.511,1.511,0,0,1-.909-.311c-.2-.2-.251-.478-.251-1.316v-.144a.21.21,0,0,0,.012-.072v-1.746a18.2,18.2,0,0,0,5.766-2.034,4.235,4.235,0,0,1,.514-.263l-.61-.8a14.388,14.388,0,0,1-5.67,2.309ZM16.9-6.341a8.135,8.135,0,0,1-.06-1.268v-3.6a4.178,4.178,0,0,0-.048-.706l.024-.012a1.32,1.32,0,0,0,.371.2A24.389,24.389,0,0,1,21.65-9.355l.514-.885a29.666,29.666,0,0,0-5.323-2.524V-15a7.508,7.508,0,0,1,.06-1.244H15.872a7.092,7.092,0,0,1,.072,1.22V-7.6a7.694,7.694,0,0,1-.072,1.256ZM28.1-9.953v2.943c0,.3-.072.359-.383.359a3.987,3.987,0,0,1-.933-.12,2.021,2.021,0,0,1,.156.754,7.47,7.47,0,0,0,.825.048,1.4,1.4,0,0,0,.778-.156c.2-.132.275-.323.275-.813v-8.17a9.755,9.755,0,0,1,.048-1.208,5.835,5.835,0,0,1-.969.06H26.841a7.112,7.112,0,0,1-1.065-.06,15.6,15.6,0,0,1,.06,1.842,37.333,37.333,0,0,1-.311,6.2,4.971,4.971,0,0,1-.682,1.854,2.53,2.53,0,0,1,.61.586,8.282,8.282,0,0,0,1.017-4.115Zm-1.6-.67.048-2.165H28.1v2.165Zm.06-2.847v-2.105H28.1v2.105Zm4.007-1.95a7.126,7.126,0,0,1,.072-1.136H29.76a7.633,7.633,0,0,1,.072,1.172v2.069c0,.478.084.67.359.813a5.614,5.614,0,0,0,2.105.227c1.77,0,2.452-.06,2.727-.263.3-.215.478-.706.586-1.6a2.014,2.014,0,0,1-.73-.347,2.584,2.584,0,0,1-.3,1.316c-.156.179-.586.227-2.093.227-1.711,0-1.926-.06-1.926-.49v-.873a19.363,19.363,0,0,0,4.677-1.22l-.586-.634a12,12,0,0,1-3.529,1.112c-.383.072-.383.072-.562.108ZM29.94-7.071a7.374,7.374,0,0,1-.06,1.2h.778v-.634h3.6v.634h.789a7.982,7.982,0,0,1-.072-1.2v-3.361a6.845,6.845,0,0,1,.048-.945,7.62,7.62,0,0,1-1.041.048H30.956a8.138,8.138,0,0,1-1.065-.048,6.957,6.957,0,0,1,.048.945Zm.718-3.6h3.6v1.364h-3.6Zm0,2.01h3.6v1.5h-3.6Zm12.357-5.3A15.151,15.151,0,0,1,42.392-9.2a6.52,6.52,0,0,1-1.519,2.656,2.365,2.365,0,0,1,.538.658A8.663,8.663,0,0,0,43.205-9.26a12.141,12.141,0,0,0,.419-2.177h2.5a24.4,24.4,0,0,1-.335,3.924c-.144.622-.263.73-.778.73a5.271,5.271,0,0,1-1.352-.191,3.379,3.379,0,0,1,.167.813,8.366,8.366,0,0,0,1.268.108c1.065,0,1.316-.323,1.543-1.974a28.248,28.248,0,0,0,.227-3.158c.024-.574.036-.754.06-.981a8.2,8.2,0,0,1-1.041.048h-2.2c.06-.813.072-1.112.084-1.842h2.691a8.474,8.474,0,0,1,1.244.072v-.849a8.252,8.252,0,0,1-1.244.072H44.485v-.825a4.926,4.926,0,0,1,.072-1.017h-.9a6.08,6.08,0,0,1,.072,1v.837H42.44a7.716,7.716,0,0,1-1.22-.06v.825a11.626,11.626,0,0,1,1.208-.06ZM40.071-9.81v2.751c0,.287-.072.359-.359.359a5.211,5.211,0,0,1-.945-.12,2.233,2.233,0,0,1,.156.754,7.363,7.363,0,0,0,.837.048,1.282,1.282,0,0,0,.718-.132c.215-.144.311-.395.311-.837v-8a9.508,9.508,0,0,1,.048-1.208,6.579,6.579,0,0,1-1,.06H38.756a7.3,7.3,0,0,1-1.112-.06,17,17,0,0,1,.072,2.153c0,4.916-.167,6.268-.945,7.572a2.261,2.261,0,0,1,.634.586,7.816,7.816,0,0,0,.957-3.924Zm0-3.493H38.433l.012-.514v-1.639h1.627Zm0,.682v2.141H38.385l.036-2.141Zm8.816,1.938a3.785,3.785,0,0,1,.67-.072c.395-.024.742-.048,1.208-.084v3.816a8.321,8.321,0,0,1-.072,1.2h.849a8.093,8.093,0,0,1-.072-1.2V-10.91c.5-.048.61-.06,1.089-.132.072.251.108.371.191.754l.61-.287a14.553,14.553,0,0,0-.909-2.333l-.562.263c.227.467.3.61.455,1-.658.084-1.017.12-1.854.179.574-.718,1.364-1.842,2.01-2.859.156-.251.251-.383.347-.514l-.706-.383a10.737,10.737,0,0,1-1.184,2.081c-.347-.419-.359-.443-.718-.849a21.468,21.468,0,0,0,1.077-1.878,5.224,5.224,0,0,1,.3-.538l-.754-.3A8.023,8.023,0,0,1,49.8-14.463c-.215-.227-.251-.263-.538-.55l-.431.562a16.858,16.858,0,0,1,1.734,1.89c-.287.419-.443.622-.837,1.136-.311.012-.383.012-.478.012a2.842,2.842,0,0,1-.467-.036Zm.526.6A8.209,8.209,0,0,1,48.768-6.9l.658.323a10.991,10.991,0,0,0,.67-3.385Zm2.524.108a11.9,11.9,0,0,1,.586,2.859l.658-.179a16.486,16.486,0,0,0-.634-2.871Zm1.615,2.763A10.356,10.356,0,0,1,53.481-5.9h.789v-.778h4.163v.766h.789a10.425,10.425,0,0,1-.072-1.328v-7.416A13.3,13.3,0,0,1,59.2-16.03a9.149,9.149,0,0,1-1.208.048h-3.3A9.681,9.681,0,0,1,53.5-16.03c.036.359.048.766.048,1.328Zm.706-8.074h1.675v3.481H54.258Zm2.368,0h1.818V-11.8H56.627Zm-2.368,4.151h1.675v3.792H54.258Zm2.368.012h1.818v3.78H56.627ZM63.756-9.87V-7c0,.275-.072.347-.347.347a6.383,6.383,0,0,1-1.053-.108,1.973,1.973,0,0,1,.156.754c.383.024.586.036.885.036.849,0,1.053-.191,1.053-.969v-8.1a9.656,9.656,0,0,1,.048-1.2,5.763,5.763,0,0,1-.921.048H62.333a6.993,6.993,0,0,1-.933-.048,22.018,22.018,0,0,1,.06,2.416,39.185,39.185,0,0,1-.239,5.562A4.568,4.568,0,0,1,60.562-6.4a2.6,2.6,0,0,1,.61.55,7.935,7.935,0,0,0,.921-4.019Zm0-3.493H62.165V-15.5h1.591Zm0,.646v2.2H62.117c.012-.3.012-.478.024-1.2,0-.215,0-.562.012-1Zm6.579-1.818A25.256,25.256,0,0,1,69.988-9.8c-.072.323-.191.419-.514.419a5.94,5.94,0,0,1-1.065-.1,2.26,2.26,0,0,1,.144.73c.455.036.694.048.969.048.969,0,1.136-.251,1.328-1.854.084-.766.191-2.345.215-3.278a12.285,12.285,0,0,1,.072-1.447,7.591,7.591,0,0,1-1.041.06H66.687c.1-.215.144-.359.227-.6.132-.371.191-.538.239-.67l-.813-.156a6.907,6.907,0,0,1-1.818,3.6,1.633,1.633,0,0,1,.49.55,8.53,8.53,0,0,0,1.376-2.045Zm-4.007,4.306H67.99c.419,0,.706.012,1.017.036-.024-.311-.036-.55-.036-.945v-1.268a8.49,8.49,0,0,1,.036-.969,8.168,8.168,0,0,1-1.053.048H66.83a5.98,5.98,0,0,1-.969-.048v.766a5.979,5.979,0,0,1,.969-.048h1.435v1.77H66.6c-.443,0-.718-.012-1.053-.036A9.305,9.305,0,0,1,65.6-9.834v2.668c0,.478.084.682.347.825a5.455,5.455,0,0,0,2.261.239c1.866,0,2.524-.084,2.823-.371.275-.251.419-.766.514-1.818a2.561,2.561,0,0,1-.754-.323c-.024.933-.1,1.364-.263,1.555-.2.215-.67.275-2.345.275a7.726,7.726,0,0,1-1.447-.084c-.3-.06-.407-.167-.407-.431Zm-65.3,17.5a2.625,2.625,0,0,1,.5-.06c.359-.024.383-.024,1.4-.108v3.84a8.8,8.8,0,0,1-.072,1.2h.849a8.438,8.438,0,0,1-.072-1.2v-3.9c.383-.036.562-.06.921-.108.072.251.108.359.191.706l.6-.251a12.994,12.994,0,0,0-.873-2.285l-.538.227a6.507,6.507,0,0,1,.419,1,17.707,17.707,0,0,1-1.818.167A32,32,0,0,0,4.688,3.372c.156-.227.2-.3.323-.455l-.706-.383A14.009,14.009,0,0,1,3.073,4.748c-.323-.371-.395-.431-.754-.8A21.1,21.1,0,0,0,3.492,2.008c.12-.215.144-.251.239-.407L3,1.291A8.364,8.364,0,0,1,1.889,3.5c-.2-.191-.287-.275-.55-.514L.92,3.552A12.164,12.164,0,0,1,2.678,5.31c-.335.49-.335.49-.909,1.232H1.387A3.208,3.208,0,0,1,.92,6.518Zm7.6-4.916A6.237,6.237,0,0,1,8.7,1.363H7.834a6.237,6.237,0,0,1,.072.993v.682a18.265,18.265,0,0,1-2.763.3,2.015,2.015,0,0,1,.323.694c1.065-.108,1.543-.167,2.44-.323V7.989h-1.5V5.764a6.756,6.756,0,0,1,.06-1.053H5.657A10.3,10.3,0,0,1,5.717,5.8V8.468a7.153,7.153,0,0,1-.072,1.077h.766V8.635h1.5v2.416c0,.694.287.837,1.7.837,1.83,0,2.057-.227,2.249-2.273a2.461,2.461,0,0,1-.742-.359,4.429,4.429,0,0,1-.251,1.687c-.12.191-.443.263-1.256.263-.885,0-.981-.036-.981-.359V8.635H9.891a9.547,9.547,0,0,1,1.136.048,8.6,8.6,0,0,1-.036-1.089V5.633a8.835,8.835,0,0,1,.06-1.029h-.813a9.118,9.118,0,0,1,.06,1.017V7.989H8.623V3.575a15.036,15.036,0,0,0,2.093-.6c.347-.12.395-.132.6-.2l-.526-.646a7.361,7.361,0,0,1-2.165.766ZM1.65,7.786a9.7,9.7,0,0,1-.718,3.182l.646.335A12.941,12.941,0,0,0,2.32,7.93Zm2.44.156a12.662,12.662,0,0,1,.586,2.7l.634-.2a18.236,18.236,0,0,0-.646-2.7ZM18.9,6.949a19.1,19.1,0,0,0,3.768-2.62c.562-.514.562-.514.73-.658L22.7,3.037A8.429,8.429,0,0,1,20.992,4.7,16.25,16.25,0,0,1,18.9,6.075V2.69A9.334,9.334,0,0,1,18.971,1.4h-.933a11.335,11.335,0,0,1,.072,1.292v7.931c0,.933.311,1.077,2.309,1.077,1.794,0,2.38-.108,2.679-.5a5.456,5.456,0,0,0,.562-2.345,2.73,2.73,0,0,1-.789-.371,5.269,5.269,0,0,1-.407,2.189c-.179.215-.634.287-2,.287-1.388,0-1.567-.06-1.567-.478Zm-4.031,3.684a14.191,14.191,0,0,1-.084,1.483h.933c-.048-.49-.072-.981-.072-1.447V4.4c.443-.993.849-1.95.957-2.225.2-.55.2-.55.251-.67l-.885-.251a5.322,5.322,0,0,1-.407,1.435,11.2,11.2,0,0,1-2.7,4.031,4.347,4.347,0,0,1,.514.694,9.631,9.631,0,0,0,1.519-2.01c-.024.634-.024.789-.024,1.459ZM26.411,4.425h-.443a4.431,4.431,0,0,1-.981-.072v.813a4.368,4.368,0,0,1,.981-.072h.443V9.042a7.912,7.912,0,0,1-1.591.514l.239.825a3.8,3.8,0,0,1,.5-.227A28.893,28.893,0,0,0,28.54,8.827l-.072-.694c-.574.287-.766.383-1.316.61V5.095h.275a7.7,7.7,0,0,1,.969.048V4.353a4.589,4.589,0,0,1-.969.072h-.275V2.559a6.185,6.185,0,0,1,.072-1.124h-.885a7.554,7.554,0,0,1,.072,1.136Zm5.778-1.782V2.236a4.772,4.772,0,0,1,.06-.921h-.873a4.4,4.4,0,0,1,.072.909v.419H29.664a7.232,7.232,0,0,1-1.16-.06v.789a6.976,6.976,0,0,1,1.148-.06h4.605a6.95,6.95,0,0,1,1.172.06V2.583a9.155,9.155,0,0,1-1.184.06ZM29.246,5.788a6.563,6.563,0,0,1-1.124-.06v.813a8.862,8.862,0,0,1,1.16-.06h5.18a9.572,9.572,0,0,1,1.184.06V5.729a8.809,8.809,0,0,1-1.172.06H33.265a17.02,17.02,0,0,0,.993-2.117L33.5,3.444a9.305,9.305,0,0,1-.993,2.345Zm.215-2.117a8.523,8.523,0,0,1,.766,1.962l.682-.251a11.624,11.624,0,0,0-.73-1.926Zm.359,7.6h4.067V12H34.7A7.862,7.862,0,0,1,34.653,11V8.623c0-.514.012-.778.036-1.041a6.185,6.185,0,0,1-.909.048H30a7.58,7.58,0,0,1-.969-.048A7.908,7.908,0,0,1,29.078,8.6V10.92A8.345,8.345,0,0,1,29.019,12h.8Zm0-2.967H33.9v2.3H29.82ZM41.7,9.592a6.173,6.173,0,0,0,1.926,1.555,10.32,10.32,0,0,0,3.7,1.053,2.591,2.591,0,0,1,.431-.706,11.467,11.467,0,0,1-3.182-.61,15.63,15.63,0,0,0,2.165-1.459l-.61-.443A8.612,8.612,0,0,1,43.911,10.6a4.1,4.1,0,0,1-1.376-1H44.4a8.024,8.024,0,0,1,.957.036c-.024-.251-.036-.538-.036-1.029V7.056a10.726,10.726,0,0,0,2.165,1.316,2.1,2.1,0,0,1,.467-.67A7.822,7.822,0,0,1,45.9,6.733a6.67,6.67,0,0,1-1.412-1.268h1.89a8.028,8.028,0,0,1,1.184.072v-.73a6.275,6.275,0,0,1-1.184.072h-3.84V4.15H45.61a6.235,6.235,0,0,1,1.041.06V3.5a5.9,5.9,0,0,1-1.041.06H42.536v-.73h3.349a7.965,7.965,0,0,1,1.172.072v-.73a7.421,7.421,0,0,1-1.172.072h-1.6c.2-.263.335-.443.694-.993L44.21,1a6.98,6.98,0,0,1-.742,1.244H41.052a6.445,6.445,0,0,0-.9-1.232l-.706.239a5.021,5.021,0,0,1,.778.993H38.636a7.527,7.527,0,0,1-1.172-.072v.73a7.965,7.965,0,0,1,1.172-.072h3.182v.73H38.935a5.965,5.965,0,0,1-1.053-.06v.706a6.3,6.3,0,0,1,1.053-.06h2.883v.73H38.146a7.487,7.487,0,0,1-1.184-.072v.73a7.807,7.807,0,0,1,1.184-.072h1.9a5.958,5.958,0,0,1-1.28,1.292,7.159,7.159,0,0,1-2.225,1.1,2.013,2.013,0,0,1,.5.658,9.524,9.524,0,0,0,1.95-1.148v3.912c-.694.084-1.16.132-1.4.132a.234.234,0,0,1-.084-.012l.167.766c.2-.048.359-.084.586-.12a40.376,40.376,0,0,0,4.366-.789l-.036-.622a26.147,26.147,0,0,1-2.871.55V9.592ZM40.071,6.434a7.451,7.451,0,0,0,.813-.969h2.823c.467.538.61.682.9.969H42.631a3.441,3.441,0,0,1,.048-.706h-.837a2.692,2.692,0,0,1,.06.706ZM39.724,7h4.9v.742h-4.9Zm0,1.28h4.9V9.03h-4.9Zm17.429-1.22a7.569,7.569,0,0,0-1.136-1.268l-.478.431a5.008,5.008,0,0,1,1.124,1.34ZM58.636,4.58a5.424,5.424,0,0,1-.9.048H55.825c.1-.251.108-.275.132-.335.144-.383.144-.383.191-.514l-.766-.2a6.871,6.871,0,0,1-.658,1.914,8.934,8.934,0,0,1-1.519,2.153,1.79,1.79,0,0,1,.538.5c.335-.419.419-.526.658-.861a9.339,9.339,0,0,0,1.531,2.2,8.175,8.175,0,0,1-2.656,1.9,2.023,2.023,0,0,1,.526.646A9.67,9.67,0,0,0,56.423,10a10.256,10.256,0,0,0,3.038,2.034,3.3,3.3,0,0,1,.455-.73,9.007,9.007,0,0,1-3.038-1.83A10.832,10.832,0,0,0,58.768,5.8c.156-.49.179-.574.263-.8Zm-.455.682A9.854,9.854,0,0,1,56.375,8.97a9.026,9.026,0,0,1-1.567-2.309,12.522,12.522,0,0,0,.754-1.4Zm-3.29-2.668H52.619a8.233,8.233,0,0,1-1.065-.072v.8a10.546,10.546,0,0,1,1.065-.06H58.5c.287,0,.61.024,1.065.06v-.8a9.046,9.046,0,0,1-1.089.072H55.646v-.55a3.571,3.571,0,0,1,.06-.8h-.873a3.56,3.56,0,0,1,.06.813Zm-5.849-.646a7.311,7.311,0,0,1,1.723,1.543l.514-.562a8.694,8.694,0,0,0-1.734-1.5Zm-.383,2.99A8.573,8.573,0,0,1,50.538,6.41L51,5.788a12.658,12.658,0,0,0-1.89-1.4Zm1.711,2.99a9.2,9.2,0,0,1-1.639,3.361l.658.6a2.42,2.42,0,0,1,.156-.275c.036-.06.108-.2.239-.431A13.953,13.953,0,0,0,50.957,8.4Zm1.782,2.763a10.693,10.693,0,0,1-.072,1.412h.873a11.672,11.672,0,0,1-.072-1.376V5.9a16.329,16.329,0,0,0,.873-1.687c.132-.275.132-.275.2-.431l-.766-.287A8.561,8.561,0,0,1,51.782,6.3a5.578,5.578,0,0,1-1.041,1.136,2.015,2.015,0,0,1,.478.646,5.261,5.261,0,0,0,.969-1.3c-.024.55-.036.837-.036,1.352Zm14.33-6.675h2.309a10.9,10.9,0,0,1,1.388.06V3.157a8.7,8.7,0,0,1-1.4.072H63.529a8.7,8.7,0,0,1-1.4-.072v.921a10.9,10.9,0,0,1,1.388-.06H65.6v5.3h-2.99a8.53,8.53,0,0,1-1.388-.072v.933a10.92,10.92,0,0,1,1.376-.06H69.7a11.011,11.011,0,0,1,1.388.06V9.245a8.607,8.607,0,0,1-1.4.072H66.483Zm10.742.048-2.44.383a8.961,8.961,0,0,1-1.244.12l.167.909a9.853,9.853,0,0,1,1.2-.263l2.464-.383L77.8,7.248l-3.182.514a6.3,6.3,0,0,1-1.184.108l.156.909a6.335,6.335,0,0,1,1.148-.239l3.206-.514.49,2.679a9.533,9.533,0,0,1,.144,1.148l.957-.179a6.491,6.491,0,0,1-.263-1.136l-.49-2.644,3-.478c.084-.012.144-.024.275-.048.2-.036.323-.06.371-.06a3.535,3.535,0,0,1,.526-.06l-.167-.885a7.351,7.351,0,0,1-1.184.275l-2.967.478L78.182,4.7,80.9,4.281c.742-.12.742-.12,1.065-.156l-.167-.861a5.619,5.619,0,0,1-1.053.239l-2.7.419L77.8,2.607a6.163,6.163,0,0,1-.132-1.017l-.945.156a4.079,4.079,0,0,1,.263,1.017Zm16.938,6.519A29.749,29.749,0,0,0,90.18,7a14.465,14.465,0,0,0,1.974-3.349,2.233,2.233,0,0,1,.335-.586l-.5-.514a2.231,2.231,0,0,1-.766.1l-4.27.048h-.311a5.622,5.622,0,0,1-.945-.06l.024.969a8.049,8.049,0,0,1,1.232-.1l4-.06a2.032,2.032,0,0,0,.287-.012.253.253,0,0,1-.036.084c-.024.06-.036.072-.06.144a12.965,12.965,0,0,1-4.27,5.395,9.629,9.629,0,0,1-2.428,1.376,2.662,2.662,0,0,1,.586.789,15.4,15.4,0,0,0,2.345-1.435,12.985,12.985,0,0,0,2.285-2.141,22.249,22.249,0,0,1,3.828,3.7Z" transform="translate(396.059 3289.693)"/>
    </g>
    <path id="合体_4" data-name="合体 4" d="M6372.239,220c0-7.87,6.4-13,13.464-13s13.462,5.129,13.462,13-6.4,13-13.462,13S6372.239,227.869,6372.239,220Zm8.371.078a5.118,5.118,0,1,0,10.184,0c0-3.088-2.237-5.71-5.091-5.71S6380.61,216.99,6380.61,220.078Zm-68.936,3.279V207.693h8.217v15.162a3.166,3.166,0,0,0,6.326.038v-15.2h8.063v15.664c0,6.094-5.285,9.566-11.3,9.566S6311.674,229.451,6311.674,223.357Zm-58.674,0V207.693h8.217v15.162a3.166,3.166,0,0,0,6.327.038v-15.2h8.064v15.664c0,6.094-5.286,9.566-11.3,9.566S6253,229.451,6253,223.357Zm91.928,8.949V207.693h10.994c4.977,0,8.487,3.435,8.487,8.024s-3.511,8.024-8.487,8.024h-3.164v8.564Zm7.83-14.621h2.083a1.778,1.778,0,1,0,0-3.549h-2.083Zm-66.505,14.621V207.693h8.217v18.016h7.715v6.6Z" transform="translate(-5853 2883)" fill="#36a8a2" stroke="rgba(0,0,0,0)" stroke-miterlimit="10" stroke-width="1"/>
  </g>
</svg>
